<?xml version="1.0" encoding="UTF-8" standalone="no"?>
<svg
   xmlns:dc="http://purl.org/dc/elements/1.1/"
   xmlns:cc="http://creativecommons.org/ns#"
   xmlns:rdf="http://www.w3.org/1999/02/22-rdf-syntax-ns#"
   xmlns:svg="http://www.w3.org/2000/svg"
   xmlns="http://www.w3.org/2000/svg"
   xmlns:sodipodi="http://sodipodi.sourceforge.net/DTD/sodipodi-0.dtd"
   xmlns:inkscape="http://www.inkscape.org/namespaces/inkscape"
   inkscape:version="1.0 (4035a4f, 2020-05-01)"
   sodipodi:docname="BTT-Icon-Black-256x256.svg"
   id="svg40"
   version="1.1"
   viewBox="0 0 256 256"
   height="256"
   width="256">
  <metadata
     id="metadata46">
    <rdf:RDF>
      <cc:Work
         rdf:about="">
        <dc:format>image/svg+xml</dc:format>
        <dc:type
           rdf:resource="http://purl.org/dc/dcmitype/StillImage" />
        <dc:title></dc:title>
      </cc:Work>
    </rdf:RDF>
  </metadata>
  <defs
     id="defs44" />
  <sodipodi:namedview
     inkscape:current-layer="svg40"
     inkscape:window-maximized="0"
     inkscape:window-y="0"
     inkscape:window-x="0"
     inkscape:cy="118.16358"
     inkscape:cx="312.63276"
     inkscape:zoom="1.285"
     fit-margin-bottom="0"
     fit-margin-right="0"
     fit-margin-left="0"
     fit-margin-top="0"
     showgrid="false"
     id="namedview42"
     inkscape:window-height="710"
     inkscape:window-width="1391"
     inkscape:pageshadow="2"
     inkscape:pageopacity="0"
     guidetolerance="10"
     gridtolerance="10"
     objecttolerance="10"
     borderopacity="1"
     bordercolor="#666666"
     pagecolor="#ffffff" />
  <g
     transform="matrix(1.0691614,0,0,1.0691614,3.7697356e-4,0)"
     id="g52">
    <path
       d="M 119.72,0 A 119.72,119.72 0 0 0 35.06,204.37 v 0 A 119.72,119.72 0 1 0 119.72,0 Z m 0,227.47 A 107.75,107.75 0 1 1 227.47,119.72 107.75,107.75 0 0 1 119.72,227.47 Z"
       fill="#fff"
       id="path32" />
    <path
       d="m 55.33,174.31 c -9.27,-19.63 -10.11,-43.72 -1.8,-63.84 a 77.49,77.49 0 0 1 22,-29.92 76.67,76.67 0 0 1 48.5,-17.71 q 0,-5.36 0.05,-10.73 V 50 c 0,0 -1.59,0 -2.25,0 a 91.58,91.58 0 0 0 -60.2,25.7 c -14.44,14.15 -23.5,33.58 -25.79,53.62 -2.46,21.61 3.59,44.25 17.16,61.34 l 0.22,0.27 c 5.55,6.92 12.11,13.21 19.92,17.43 A 95.17,95.17 0 0 0 115.55,220 C 90,215.35 66.43,197.83 55.33,174.31 Z"
       fill="#fff"
       id="path34" />
    <path
       d="m 185.11,188.46 c -2.52,0.23 -5,0.41 -7.56,0.56 -21.19,1.19 -44.61,0.68 -63.32,-10.66 a 55,55 0 0 1 -13.67,-11.68 c -13.47,-16.05 -13,-40.24 4.24,-53.45 15,-11.51 37.6,-9.32 49.7,5.39 1.07,1.31 3.42,4.29 3.42,4.29 0,0 4,-2.09 5.21,-2.71 l 0.4,-0.19 0.26,-0.13 0.67,-0.33 0.34,-0.17 3,-1.47 1.66,-0.82 -0.05,-0.08 a 50,50 0 0 0 -13.66,-14.87 50.54,50.54 0 0 0 -36.4,-8.82 c -20.59,3.12 -37.63,19 -41,39.59 -3.51,21.3 7.17,41.73 24.72,53.61 18.22,12.34 41.17,14 62.8,13.17 5.07,-0.21 15.41,-1.08 15.38,-1.26 A 108.34,108.34 0 0 0 193,187.28 c 0,0 -6.83,1.09 -7.89,1.18 z"
       fill="#fff"
       id="path36" />
    <path
       d="m 149.27,207.69 c -2.59,-0.07 -5.18,-0.22 -7.76,-0.47 -21.31,-2 -43.06,-10.1 -57.13,-26.85 -13,-15.54 -18.52,-37.58 -12.15,-57.1 A 56.2,56.2 0 0 1 146,88.51 c 0,0 2.53,-5.49 2.78,-6 v -0.09 l 0.09,-0.19 0.18,-0.39 c 0.81,-1.72 1.58,-3.46 2.43,-5.15 C 133.59,70.3 114.3,69.98 96.77,77.95 A 69.4,69.4 0 0 0 70,182.72 c 7.65,10.24 18.21,18.14 29.56,24 17.95,9.27 43.81,10.45 45.66,10.05 8.92,-2.12 21.71,-8.23 24.33,-10.24 -3.85,0.77 -10.48,1 -14.4,1.13 -1.97,0.06 -3.93,0.07 -5.88,0.03 z"
       fill="#fff"
       id="path38" />
  </g>
</svg>
