<svg width="25" height="25" xmlns="http://www.w3.org/2000/svg" xml:space="preserve" version="1.1">

 <g>
  <title>Layer 1</title>
  <g id="фон"/>
  <g id="примеры"/>
  <g id="лого">
   <g id="svg_1">
    <path id="svg_2" fill="#FFFFFF" clip-rule="evenodd" fill-rule="evenodd" d="m24.34485,12.52206c0,6.8 -5.3,12.3 -11.9,12.3c-6.6,0 -11.9,-5.5 -11.9,-12.3c0,-6.8 5.3,-12.3 11.9,-12.3c6.6,0 11.9,5.5 11.9,12.3z" class="st64"/>
    <path id="svg_3" fill="#204E76" clip-rule="evenodd" fill-rule="evenodd" d="m0.74485,12.52206c0,-6.7 5.3,-12.1 11.7,-12.1c6.5,0 11.7,5.4 11.7,12.1c0,6.7 -5.3,12.1 -11.7,12.1c-6.5,0 -11.7,-5.4 -11.7,-12.1zm-0.4,0c0,6.9 5.4,12.5 12.1,12.5c6.7,0 12.1,-5.6 12.1,-12.5c0,-6.9 -5.4,-12.5 -12.1,-12.5c-6.7,0 -12.1,5.6 -12.1,12.5z" class="st109"/>
    <path id="svg_4" fill="#204E76" clip-rule="evenodd" fill-rule="evenodd" d="m20.14485,11.22206c-0.1,0.1 -0.2,0.2 -0.3,0.2c-0.7,0.5 -1.7,1 -3.2,1.4c-3,0.8 -5.3,1 -7.8,1.6c-0.5,0.1 -1,0.3 -1.5,0.5c0.5,0.2 1,0.5 1.5,0.7c1,-0.3 1.5,-0.4 3,-0.7c0.6,-0.1 2.3,-0.4 3.6,-0.7c2.3,-0.5 5.6,-1.6 4.7,-3l0,0zm-1.4,-2.9c-0.5,-0.2 -1.1,-0.4 -1.7,-0.6c-0.3,0.2 -0.6,0.4 -1.1,0.6c0.8,0.1 1.4,0.4 2.1,0.6l0,0c0,0 0.6,-0.5 0.7,-0.6l0,0zm-11.1,3.1c3,-0.9 6.1,-1.2 9.2,-2c-1.2,-0.3 -1.9,-0.5 -3.2,-0.3c-1.9,0.2 -4,0.7 -5.7,1.2c-0.7,0.2 -4.4,1.3 -3.3,2.8l0,0c-0.1,0 0.6,-1 3,-1.7l0,0zm-2.1,5.2c0,0.3 0.2,0.5 0.5,0.8c0,-0.2 0.1,-0.3 0.2,-0.4l0,0c-0.2,-0.1 -0.4,-0.3 -0.7,-0.4l0,0zm1.4,-0.2c0.2,-0.1 0.5,-0.3 0.8,-0.4c-0.4,-0.2 -0.9,-0.4 -1.3,-0.6c-0.2,0.1 -0.4,0.3 -0.5,0.4l0,0c0.3,0.3 0.7,0.4 1,0.6l0,0zm11.4,-6.5c-0.6,0.3 -1.5,0.6 -2.7,0.9c-1,0.3 -3.5,0.6 -6.1,1.2c-0.8,0.2 -3.1,0.7 -4.2,1.7c0.3,0.3 0.5,0.3 0.8,0.5c0.5,-0.3 1.1,-0.6 2,-0.8c1.6,-0.4 2.8,-0.6 4.3,-0.9c1.4,-0.2 4.2,-0.8 5.7,-1.4c0.5,-0.2 0.9,-0.4 1.3,-0.7c-0.1,0 -1.1,-0.5 -1.1,-0.5l0,0zm0.9,-0.5c0.3,0.2 0.6,0.3 0.8,0.4c0.2,-0.4 0.1,-0.6 -0.3,-0.9l0,0c-0.2,0.2 -0.4,0.3 -0.5,0.5l0,0zm-13.8,5.5c-0.3,-0.2 -0.4,-0.3 -0.7,-0.4c-0.1,0.3 0.1,0.6 0.3,0.7l0,0c0.2,-0.1 0.3,-0.2 0.4,-0.3l0,0zm12.6,-8.4c-0.1,0.2 -0.3,0.4 -0.4,0.6c0.4,0.1 0.9,0.3 1.3,0.5c-0.1,-0.5 -0.5,-0.9 -0.9,-1.1l0,0zm-14,2.6c3.1,-2.1 6.5,-3.3 12.3,-2.3c0.3,-0.2 0.5,-0.4 0.6,-0.8c-1.5,-0.5 -3,-0.7 -5.1,-0.7c-1.8,0 -5.1,0.8 -6.9,1.8l0.5,-0.7c1.2,-0.7 4.4,-1.7 6.8,-1.8c1.7,0 2.6,0.1 4.6,0.6c-0.2,-0.4 -0.6,-0.5 -1.2,-0.8c-1.9,-0.9 -5.6,-1 -8.6,0.4c0.4,-0.3 0.7,-0.5 1.2,-0.7c1,-0.5 2.6,-0.9 4.6,-0.9c1.6,0 3.5,0.6 4.7,1.8c0.2,0.2 0.3,0.5 0.4,0.7c0.9,0.5 1.5,0.9 1.8,1.5c0.1,0.3 0.2,0.6 0.1,0.9c0.4,0.2 0.6,0.4 0.8,0.7c0.1,0.2 0.2,0.5 0.3,0.7c0,0.3 0.1,0.6 -0.2,1c0.3,0.2 0.6,0.6 0.6,0.8c0.1,0.7 -0.3,1.4 -0.9,2c-0.7,0.6 -2.2,1.3 -3.4,1.7c-2.4,0.6 -4.6,0.9 -6.3,1.2c0.8,0.2 1.8,0.4 3.5,0.4c3.6,0 6.8,-1.8 6.8,-1.8s-0.1,0.2 -0.1,0.4c-2.3,1.4 -6,2.1 -7.5,2c-1.6,-0.1 -2.9,-0.3 -4.2,-0.7c-0.4,0.1 -0.8,0.2 -1.2,0.4c2,0.9 3.5,1.1 5.2,1.3c1.7,0.1 4.6,-0.3 7,-1.2c-0.1,0.1 -0.2,0.3 -0.3,0.4c-1.2,0.7 -3.9,1.4 -5.2,1.4c-1.3,0.1 -2.9,0 -4.3,-0.3c-1.2,-0.2 -2.2,-0.6 -3.2,-1.1c-0.2,0.1 -0.3,0.3 -0.3,0.5c4,2.2 7.7,2.2 12,0.8l-0.4,0.4c-4.7,2 -8.3,1.2 -11.2,-0.2c-0.1,0 -0.2,-0.1 -0.3,-0.1c0.3,0.5 2.4,2.1 4.8,2.3c1.7,0.1 3.7,-0.2 4.9,-0.7l-0.7,0.4c-0.6,0.3 -2.1,1 -4.3,0.8c-2.9,-0.2 -4.5,-1.5 -5.2,-2.2c-0.3,-0.3 -0.5,-0.7 -0.6,-1.2c-0.7,-0.4 -1.1,-0.7 -1.4,-1.3c-0.2,-0.3 -0.2,-0.7 -0.1,-1c0,-0.1 0,-0.2 0.1,-0.3c-0.3,-0.2 -0.6,-0.5 -0.8,-0.7c-0.3,-0.5 -0.1,-1 0.1,-1.3c-0.2,-0.2 -0.3,-0.4 -0.4,-0.6c0,-0.1 0,-0.3 0,-0.6c0.1,-0.4 0.3,-0.9 0.6,-1.2c0.6,-0.8 1.6,-1.3 3.3,-1.9c1.7,-0.6 2.3,-0.7 3.6,-1c1.5,-0.4 3.2,-0.5 4.7,-1c-4.1,-0.7 -8.3,-0.1 -11.8,2.4l0.2,-0.6z" class="st109"/>
   </g>
  </g>
 </g>
</svg>