<svg width="20" height="11" xmlns="http://www.w3.org/2000/svg" fill="none">

 <g>
  <title>Layer 1</title>
  <path transform="rotate(-90 10.0183 5.40901)" id="svg_1" fill="#00BF96" d="m10.68095,13.02329l-0.04032,-16.80573c0,-0.36227 -0.29665,-0.65624 -0.66285,-0.65624c-0.3662,0 -0.66285,0.29403 -0.66285,0.65624l0.04032,16.80573l-3.4618,-3.4126c-0.25922,-0.25661 -0.67856,-0.25661 -0.93713,0c-0.25922,0.25661 -0.25922,0.67201 0,0.92797l4.59319,4.52753c0.25529,0.2527 0.68254,0.2553 0.93778,0l4.59318,-4.52819c0.2592,-0.25661 0.2586,-0.67201 0,-0.92796c-0.2586,-0.25661 -0.6786,-0.25661 -0.9371,0l-3.46242,3.41325z"/>
 </g>
</svg>