<?xml version="1.0" encoding="UTF-8"?>
<svg xmlns="http://www.w3.org/2000/svg" xmlns:xlink="http://www.w3.org/1999/xlink" width="256pt" height="256pt" viewBox="0 0 256 256" version="1.1">
<defs>
<linearGradient id="linear0" gradientUnits="userSpaceOnUse" x1="184.5" y1="0.5" x2="184.5" y2="368.5" >
<stop offset="0" style="stop-color:rgb(31.764706%,32.941176%,40.392157%);stop-opacity:1;"/>
<stop offset="1" style="stop-color:rgb(20.392157%,21.176471%,26.27451%);stop-opacity:1;"/>
</linearGradient>
<linearGradient id="linear1" gradientUnits="userSpaceOnUse" x1="0" y1="184.5" x2="369" y2="184.5" >
<stop offset="0" style="stop-color:rgb(60%,60%,60%);stop-opacity:1;"/>
<stop offset="1" style="stop-color:rgb(0%,0%,0%);stop-opacity:1;"/>
</linearGradient>
</defs>
<g id="surface1">
<path style="fill-rule:nonzero;fill:url(#linear0);stroke-width:1;stroke-linecap:butt;stroke-linejoin:miter;stroke:url(#linear1);stroke-miterlimit:10;" d="M 19.999512 0.501114 L 349.000488 0.501114 C 359.771622 0.501114 368.498886 9.228378 368.498886 19.999512 L 368.498886 349.000488 C 368.498886 359.771622 359.771622 368.498886 349.000488 368.498886 L 19.999512 368.498886 C 9.228378 368.498886 0.501114 359.771622 0.501114 349.000488 L 0.501114 19.999512 C 0.501114 9.228378 9.228378 0.501114 19.999512 0.501114 Z M 19.999512 0.501114 " transform="matrix(0.693767,0,0,0.693767,0,0)"/>
<path style=" stroke:none;fill-rule:nonzero;fill:rgb(98.039216%,98.039216%,98.039216%);fill-opacity:1;" d="M 16.234375 110.378906 C 16.511719 109.613281 17.273438 109.683594 17.828125 109.476562 L 26.847656 109.476562 C 28.792969 110.726562 26.917969 112.945312 28.097656 114.402344 C 37.1875 106.078125 47.382812 106.703125 54.253906 115.929688 C 61.328125 106.632812 78.328125 104.828125 81.519531 118.007812 L 81.726562 120.089844 C 81.796875 130.496094 81.796875 140.902344 81.796875 151.3125 C 81.65625 152.210938 81.65625 153.046875 80.269531 152.976562 C 77.492188 152.90625 74.71875 152.90625 71.945312 153.046875 C 69.167969 153.183594 70.210938 151.796875 70.140625 150.476562 C 70.140625 145.414062 70.070312 140.347656 70 135.285156 C 70.28125 134.570312 70.28125 133.777344 70 133.066406 C 70.277344 130.808594 70.277344 128.523438 70 126.265625 C 70.140625 121.269531 68.40625 118.980469 64.242188 118.703125 C 60.082031 118.425781 55.015625 121.824219 54.878906 125.640625 L 54.878906 149.855469 C 54.808594 150.824219 54.808594 151.726562 54.738281 152.699219 C 54.523438 152.761719 54.382812 152.960938 54.390625 153.183594 L 54.460938 153.183594 C 51.40625 153.113281 48.355469 152.835938 45.304688 153.324219 L 43.222656 152.765625 L 43.011719 151.378906 L 43.011719 150.6875 C 43.359375 149.554688 43.359375 148.347656 43.011719 147.21875 C 43.359375 139.792969 43.359375 132.441406 43.011719 125.015625 C 42.597656 120.367188 41.140625 118.980469 36.492188 118.910156 L 35.242188 119.050781 C 30.386719 120.160156 28.097656 122.3125 27.957031 125.710938 C 27.679688 133.480469 27.542969 141.320312 27.957031 149.160156 C 27.648438 150.105469 27.648438 151.128906 27.957031 152.074219 L 27.613281 152.976562 L 26.15625 153.390625 L 17.136719 153.390625 C 15.957031 152.210938 16.441406 150.753906 16.441406 149.4375 C 16.304688 139.378906 16.304688 129.386719 16.234375 119.328125 Z M 16.234375 110.378906 "/>
<path style=" stroke:none;fill-rule:nonzero;fill:rgb(98.039216%,98.039216%,98.039216%);fill-opacity:1;" d="M 100.527344 111.765625 C 106.910156 108.503906 113.640625 107.601562 120.644531 109.613281 C 132.09375 112.945312 138.960938 125.640625 135.355469 137.089844 C 134.519531 139.726562 134.660156 142.914062 132.230469 144.996094 C 124.046875 154.710938 113.847656 156.027344 102.46875 151.867188 C 98.792969 149.855469 95.949219 146.800781 93.242188 143.679688 C 93.035156 142.984375 92.894531 142.292969 92.6875 141.667969 C 87.898438 129.734375 90.46875 119.746094 100.527344 111.765625 Z M 102.261719 131.332031 C 102.261719 140.558594 109.476562 146.175781 117.246094 143.125 C 121.617188 141.460938 124.324219 137.019531 124.324219 131.398438 C 124.324219 125.78125 121.6875 121.132812 117.175781 119.398438 C 109.40625 116.414062 102.191406 122.171875 102.261719 131.332031 Z M 102.261719 131.332031 "/>
<path style=" stroke:none;fill-rule:nonzero;fill:rgb(98.039216%,98.039216%,98.039216%);fill-opacity:1;" d="M 202.578125 149.785156 C 195.226562 143.402344 192.519531 135.355469 194.53125 125.847656 C 196.542969 116.34375 201.816406 111.417969 210.417969 109.40625 C 219.023438 107.394531 227.625 108.921875 234.214844 115.929688 L 236.226562 118.289062 C 239.90625 125.15625 240.804688 132.300781 238.515625 139.863281 C 237.960938 141.597656 236.367188 142.5 236.226562 144.304688 L 233.453125 147.773438 L 232.132812 149.019531 C 228.609375 151.46875 224.617188 153.167969 220.410156 154.015625 C 214.027344 154.433594 207.992188 153.390625 202.578125 149.785156 Z M 205.769531 131.332031 C 205.769531 138.753906 210.210938 143.816406 216.734375 143.886719 C 223.253906 143.957031 227.972656 138.683594 227.972656 131.261719 C 227.972656 123.835938 223.324219 118.773438 216.941406 118.703125 C 210.558594 118.632812 205.769531 123.769531 205.769531 131.332031 Z M 205.769531 131.332031 "/>
<path style=" stroke:none;fill-rule:nonzero;fill:rgb(98.039216%,98.039216%,98.039216%);fill-opacity:1;" d="M 185.375 151.3125 C 185.234375 152.210938 185.027344 153.046875 183.777344 152.976562 C 180.449219 152.835938 177.1875 153.390625 173.859375 152.699219 L 173.859375 127.375 C 173.789062 122.3125 172.402344 120.023438 168.722656 119.050781 C 165.046875 118.078125 158.316406 120.023438 156.375 123.351562 C 155.820312 124.390625 156.027344 125.363281 156.027344 126.40625 C 155.957031 134.242188 155.890625 142.082031 156.027344 149.921875 C 156.097656 152.210938 155.679688 153.113281 153.113281 153.113281 C 144.582031 153.046875 144.582031 153.113281 144.582031 144.789062 C 144.582031 134.035156 144.652344 123.28125 144.511719 112.597656 C 144.511719 110.101562 145.136719 109.335938 147.5625 109.546875 C 149.875 109.660156 152.191406 109.636719 154.5 109.476562 C 157.484375 110.308594 155.058594 112.875 156.375 114.609375 C 160.882812 110.515625 166.15625 108.226562 172.402344 108.574219 C 178.644531 108.921875 183.363281 112.183594 185.097656 118.703125 L 185.375 149.855469 Z M 185.375 151.3125 "/>
</g>
</svg>
