<svg width="27" height="27" xmlns="http://www.w3.org/2000/svg" xml:space="preserve" version="1.1">

 <g>
  <title>Layer 1</title>
  <g id="фон"/>
  <g id="примеры"/>
  <g id="лого">
   <g id="svg_1">
    <path id="svg_2" fill="#F4F5F5" d="m23.34,17.18l0,0c-3.4,5.9 -9.7,9.6 -9.7,9.6s-6.3,-3.6 -9.7,-9.5l0,0c-3.4,-6.1 -3.3,-13.4 -3.3,-13.4s6.2,-3.6 13,-3.6l0,0c6.7,0 13,3.6 13,3.6s0.1,7.3 -3.3,13.3z" class="st50"/>
    <path id="svg_3" fill="#F1A114" d="m17.44,1.68c0,0 -3.6,1.1 -4.2,5.6s-2.3,5.3 -3.8,5.8c-1.5,0.5 -4.3,0.7 -6,-1.5s-1.9,-5 -1.8,-7c0,0 5.9,-4.3 15.8,-2.9z" class="st51"/>
    <path id="svg_4" fill="#62ADE4" d="m20.34,19.58c0,0 0.8,-3.6 -2.8,-6.5s-3.5,-4.6 -3.2,-6.1c0.3,-1.5 1.6,-4.1 4.3,-4.5s5.3,1 7.1,2c-0.1,0 0.7,7.3 -5.4,15.1z" class="st52"/>
    <path id="svg_5" fill="#14C0AF" d="m3.24,12.98c0,0 2.7,2.6 7,0.9c4.3,-1.7 5.7,-0.6 6.9,0.4c1.2,1 2.7,3.4 1.7,6c-1,2.5 -3.5,4.1 -5.3,5.1c0,-0.1 -6.6,-3.1 -10.3,-12.4z" class="st53"/>
   </g>
  </g>
 </g>
</svg>