<?xml version="1.0" encoding="UTF-8"?>
<svg xmlns="http://www.w3.org/2000/svg" xmlns:xlink="http://www.w3.org/1999/xlink" width="256pt" height="239pt" viewBox="0 0 256 239" version="1.1">
<g id="surface1">
<path style=" stroke:none;fill-rule:nonzero;fill:rgb(22.745098%,48.627451%,29.019608%);fill-opacity:1;" d="M 255.757812 63.289062 L 255.757812 65.695312 C 255.574219 65.789062 255.574219 65.878906 255.480469 66.066406 C 254.757812 71.851562 251.757812 77.113281 247.144531 80.683594 C 246.308594 81.238281 246.214844 81.703125 246.679688 82.628906 C 248.71875 86.515625 248.070312 90.121094 244.917969 93.175781 C 243.640625 94.460938 242.132812 95.496094 240.472656 96.230469 C 239.660156 96.453125 239.144531 97.246094 239.269531 98.078125 C 239.328125 135.644531 239.359375 173.273438 239.359375 210.964844 C 239.40625 215.386719 238.324219 219.75 236.210938 223.640625 C 231.113281 232.894531 223.238281 237.890625 212.769531 238.816406 L 26.644531 238.816406 C 14.546875 237.933594 4.328125 229.507812 1.167969 217.8125 C 0.796875 216.515625 0.890625 215.128906 0.242188 213.832031 L 0.242188 25.074219 C 0.613281 24.890625 0.519531 24.613281 0.519531 24.335938 C 0.835938 22.210938 1.394531 20.132812 2.1875 18.136719 C 6.910156 7.21875 15.15625 1.203125 27.015625 0.09375 L 212.957031 0.09375 C 224.855469 0.917969 234.964844 9.089844 238.25 20.542969 C 239.359375 24.425781 239.359375 28.3125 239.359375 32.199219 C 239.269531 39.695312 239.359375 47.28125 239.269531 54.777344 C 239.269531 55.703125 239.359375 56.070312 240.378906 55.609375 C 241.816406 54.925781 243.34375 54.457031 244.917969 54.222656 C 250.753906 52.925781 253.71875 54.871094 255.203125 60.511719 C 255.234375 61.460938 255.421875 62.402344 255.757812 63.289062 Z M 126.148438 214.015625 L 125.960938 213.738281 L 124.757812 212.722656 C 121.152344 209.6875 118.136719 206.019531 115.863281 201.894531 C 110.582031 191.996094 109.472656 181.449219 111.324219 170.621094 C 114.195312 153.78125 123.089844 140.644531 137.265625 131.296875 C 145.695312 125.839844 154.960938 122.878906 165.152344 124.171875 C 171.820312 125.003906 177.566406 127.6875 181.917969 133.054688 C 190.257812 143.046875 192.390625 154.523438 189.792969 167.011719 C 187.199219 179.503906 180.714844 190.238281 171.359375 199.121094 C 166.191406 203.941406 160.46875 208.132812 154.3125 211.613281 C 153.664062 212.074219 153.105469 212.351562 153.570312 213.371094 C 154.035156 214.386719 154.773438 214.015625 155.421875 213.832031 C 157.777344 212.902344 160.066406 211.820312 162.277344 210.59375 C 170.152344 206.152344 177.84375 201.339844 184.234375 194.863281 C 197.113281 181.816406 205.265625 166.179688 207.582031 147.859375 C 208.738281 140.058594 208.007812 132.097656 205.453125 124.636719 C 201.28125 112.882812 193.316406 105.296875 180.902344 102.707031 C 172.933594 101.039062 165.152344 102.152344 157.554688 104.742188 C 146.066406 108.71875 136.617188 115.566406 128.464844 124.359375 C 122.164062 131.113281 117.53125 138.882812 113.640625 147.210938 C 108.542969 158.128906 105.023438 169.511719 105.394531 181.726562 C 105.496094 190.175781 108.355469 198.367188 113.546875 205.042969 L 115.679688 207.632812 L 101.410156 207.632812 C 100.644531 207.6875 99.929688 207.238281 99.648438 206.523438 C 94.011719 195.113281 92.410156 182.132812 95.109375 169.695312 C 97.242188 159.332031 101.597656 149.894531 107.0625 141.011719 C 111.417969 133.886719 116.789062 127.597656 122.070312 121.210938 C 127.222656 114.875 133.390625 109.433594 140.320312 105.113281 C 150.699219 98.636719 161.722656 94.5625 174.136719 94.75 C 180.230469 94.757812 186.210938 96.386719 191.460938 99.46875 L 197.390625 102.984375 C 203.027344 106.554688 209.980469 107.371094 216.292969 105.203125 C 219.097656 104.515625 221.058594 101.984375 221.015625 99.097656 C 221.15625 97.886719 221.0625 96.664062 220.738281 95.488281 C 220.554688 94.75 220.832031 94.65625 221.480469 94.5625 C 224.257812 94.472656 227.039062 94.378906 229.726562 94.101562 C 232.796875 94.03125 235.824219 93.339844 238.621094 92.066406 C 243.160156 89.84375 244.269531 85.679688 241.398438 81.609375 C 240.933594 80.871094 241.027344 80.59375 241.675781 80.035156 C 245.523438 77.089844 248.5 73.15625 250.292969 68.65625 C 251.394531 66.125 251.425781 63.253906 250.386719 60.699219 C 249.894531 59.351562 248.574219 58.484375 247.144531 58.570312 C 245.835938 58.613281 244.550781 58.898438 243.34375 59.402344 C 240.285156 60.617188 237.3125 62.039062 234.449219 63.660156 C 232.226562 64.769531 232.226562 64.769531 230.929688 62.828125 C 229.632812 60.882812 228.148438 59.402344 225.742188 59.402344 C 224.113281 59.429688 222.507812 59.777344 221.015625 60.421875 C 217.742188 61.878906 214.585938 63.578125 211.566406 65.511719 C 210.703125 66.125 209.726562 66.566406 208.695312 66.804688 C 208.789062 66.433594 208.789062 66.25 208.878906 65.972656 C 209.367188 64.554688 209.179688 62.988281 208.367188 61.726562 C 207.554688 60.460938 206.207031 59.640625 204.710938 59.496094 C 203.789062 59.371094 202.859375 59.339844 201.929688 59.402344 C 197.933594 59.855469 194.0625 61.082031 190.535156 63.011719 C 183.308594 66.804688 177.378906 72.078125 173.582031 79.390625 C 172.839844 80.683594 172.933594 80.777344 174.414062 80.683594 C 179.863281 80.515625 185.3125 80.761719 190.722656 81.425781 C 195.621094 82.226562 200.582031 82.566406 205.542969 82.441406 C 212.839844 82.128906 220.023438 80.53125 226.761719 77.722656 C 229.582031 76.355469 232.277344 74.746094 234.820312 72.914062 C 235.5625 72.355469 236.671875 71.617188 237.414062 72.632812 C 238.15625 73.652344 237.320312 74.390625 236.765625 75.039062 C 235.355469 76.558594 233.734375 77.867188 231.949219 78.925781 C 221.480469 85.867188 209.898438 87.625 197.667969 86.515625 C 190.167969 85.632812 182.617188 85.261719 175.0625 85.402344 C 165.613281 85.773438 156.351562 87.347656 147.734375 91.511719 C 147.546875 91.601562 147.457031 91.695312 147.269531 91.511719 L 149.773438 87.996094 C 157.972656 75.636719 164.925781 62.492188 170.523438 48.761719 C 173.410156 42.175781 175.765625 35.367188 177.566406 28.40625 C 177.9375 26.925781 177.9375 26.925781 176.359375 26.925781 L 109.285156 26.925781 C 108.8125 26.847656 108.332031 26.914062 107.894531 27.109375 C 108.171875 27.664062 108.636719 27.851562 109.007812 28.222656 C 113.226562 31.789062 116.691406 36.160156 119.199219 41.082031 C 123.515625 49.953125 124.972656 59.941406 123.367188 69.671875 C 120.773438 86.328125 112.34375 99.46875 98.261719 108.8125 C 89.644531 114.550781 80.195312 117.789062 69.632812 116.585938 C 63.25 115.976562 57.316406 113.046875 52.957031 108.351562 C 46.472656 101.503906 43.96875 92.992188 43.878906 83.738281 C 43.933594 77.945312 45.03125 72.210938 47.121094 66.804688 C 51.753906 54.128906 60.183594 44.414062 70.746094 36.269531 C 73.902344 33.972656 77.183594 31.839844 80.566406 29.886719 C 81.121094 29.515625 81.492188 29.332031 81.214844 28.589844 C 80.9375 27.851562 80.472656 27.386719 79.453125 27.757812 C 76.601562 28.859375 73.84375 30.1875 71.207031 31.738281 C 63.796875 35.992188 56.570312 40.527344 50.546875 46.632812 C 38.492188 58.671875 30.410156 74.105469 27.386719 90.863281 C 25.640625 99.765625 26.34375 108.976562 29.425781 117.511719 C 32.390625 126.023438 37.761719 132.59375 46.007812 136.386719 C 54.253906 140.179688 62.222656 140.457031 70.652344 138.605469 C 86.679688 135.089844 99.28125 126.023438 109.378906 113.4375 C 114.707031 106.671875 119.128906 99.238281 122.535156 91.324219 C 126.609375 82.164062 129.574219 72.726562 129.851562 62.550781 C 130.128906 52.371094 126.796875 40.988281 119.011719 32.476562 C 118.828125 32.292969 118.457031 32.105469 118.644531 31.738281 L 129.945312 31.738281 C 130.8125 31.664062 131.632812 32.144531 131.984375 32.941406 C 139.859375 47.003906 141.433594 61.902344 137.265625 77.445312 C 132.726562 94.472656 123.273438 108.71875 111.601562 121.675781 C 106.96875 126.761719 102.152344 131.667969 97.796875 137.035156 C 79.359375 159.703125 65.371094 184.777344 56.847656 212.816406 C 56.476562 214.109375 56.476562 214.109375 57.867188 214.109375 L 126.148438 214.109375 Z M 8.671875 119.453125 L 8.671875 205.875 C 8.671875 214.480469 12.378906 221.234375 19.417969 226.136719 C 23.867188 229.285156 28.867188 230.488281 34.335938 230.488281 L 202.765625 230.488281 C 205.347656 230.566406 207.90625 229.957031 210.175781 228.730469 C 215.828125 225.582031 221.292969 222.160156 225.742188 217.441406 C 229.175781 213.933594 231.074219 209.207031 231.023438 204.300781 C 230.835938 169.695312 230.929688 135.089844 230.929688 100.484375 L 230.929688 99.558594 C 231.023438 98.914062 230.835938 98.726562 230.1875 98.726562 L 227.78125 98.914062 C 226.574219 98.820312 226.390625 99.28125 226.390625 100.394531 L 226.390625 205.597656 C 226.492188 211.019531 224.375 216.246094 220.527344 220.070312 C 216.679688 223.898438 211.433594 225.988281 206.007812 225.859375 L 33.128906 225.859375 C 22.164062 225.808594 13.304688 216.917969 13.304688 205.96875 L 13.304688 32.847656 C 13.253906 27.597656 15.316406 22.546875 19.023438 18.824219 C 22.734375 15.101562 27.78125 13.019531 33.039062 13.046875 L 205.914062 13.046875 C 211.359375 12.996094 216.597656 15.136719 220.449219 18.980469 C 224.296875 22.828125 226.441406 28.058594 226.390625 33.496094 L 226.390625 53.109375 C 226.390625 54.589844 226.390625 54.589844 227.964844 54.871094 C 228.632812 54.933594 229.285156 55.089844 229.910156 55.332031 C 230.835938 55.703125 230.929688 55.332031 230.929688 54.5 L 230.929688 32.199219 C 230.902344 30.394531 230.683594 28.59375 230.28125 26.832031 C 227.871094 16.839844 218.699219 8.421875 205.914062 8.421875 L 34.148438 8.421875 C 32.601562 8.375 31.050781 8.46875 29.515625 8.699219 C 17.40625 10.582031 8.527344 21.070312 8.671875 33.308594 Z M 8.671875 119.453125 "/>
<path style=" stroke:none;fill-rule:nonzero;fill:rgb(99.215686%,99.607843%,99.215686%);fill-opacity:1;" d="M 212.769531 238.816406 C 223.238281 237.890625 231.113281 232.894531 236.210938 223.640625 C 238.324219 219.75 239.40625 215.386719 239.359375 210.964844 C 239.359375 173.273438 239.328125 135.644531 239.269531 98.078125 C 239.144531 97.246094 239.660156 96.453125 240.472656 96.230469 C 242.132812 95.496094 243.640625 94.460938 244.917969 93.175781 C 248.070312 90.121094 248.71875 86.515625 246.679688 82.628906 C 246.214844 81.703125 246.308594 81.238281 247.144531 80.683594 C 251.757812 77.113281 254.757812 71.851562 255.480469 66.066406 C 255.574219 65.878906 255.574219 65.789062 255.757812 65.695312 L 255.757812 237.890625 C 255.757812 238.722656 255.574219 238.90625 254.738281 238.90625 L 212.769531 238.90625 Z M 212.769531 238.816406 "/>
<path style=" stroke:none;fill-rule:nonzero;fill:rgb(99.215686%,99.607843%,99.215686%);fill-opacity:1;" d="M 255.757812 63.289062 C 255.433594 62.429688 255.246094 61.523438 255.203125 60.605469 C 253.71875 54.960938 250.753906 53.019531 244.917969 54.3125 C 243.34375 54.550781 241.816406 55.015625 240.378906 55.703125 C 239.359375 56.164062 239.269531 55.792969 239.269531 54.871094 C 239.359375 47.375 239.269531 39.785156 239.359375 32.292969 C 239.359375 28.40625 239.359375 24.519531 238.25 20.632812 C 234.964844 9.183594 224.855469 1.007812 212.957031 0.183594 L 254.832031 0.183594 C 255.574219 0.183594 255.757812 0.277344 255.757812 1.019531 Z M 255.757812 63.289062 "/>
<path style=" stroke:none;fill-rule:nonzero;fill:rgb(99.215686%,99.607843%,99.215686%);fill-opacity:1;" d="M 27.015625 0.09375 C 15.15625 1.203125 6.910156 7.21875 2.1875 18.136719 C 1.394531 20.132812 0.835938 22.210938 0.519531 24.335938 C 0.519531 24.613281 0.613281 24.890625 0.242188 25.074219 L 0.242188 0.738281 C 0.242188 0.09375 0.332031 0 1.074219 0 L 27.015625 0 Z M 27.015625 0.09375 "/>
<path style=" stroke:none;fill-rule:nonzero;fill:rgb(99.215686%,99.607843%,99.215686%);fill-opacity:1;" d="M 0.242188 213.832031 C 0.890625 215.128906 0.796875 216.515625 1.167969 217.8125 C 4.359375 229.472656 14.570312 237.855469 26.644531 238.722656 L 1.074219 238.722656 C 0.425781 238.722656 0.242188 238.628906 0.242188 237.890625 Z M 0.242188 213.832031 "/>
<path style=" stroke:none;fill-rule:nonzero;fill:rgb(85.490196%,74.901961%,27.45098%);fill-opacity:1;" d="M 126.148438 214.015625 L 57.867188 214.015625 C 56.476562 214.015625 56.476562 214.015625 56.847656 212.722656 C 65.371094 184.6875 79.359375 159.609375 97.796875 136.941406 C 102.152344 131.574219 106.96875 126.671875 111.601562 121.582031 C 123.273438 108.628906 132.726562 94.378906 137.265625 77.351562 C 141.433594 61.808594 139.859375 46.910156 131.984375 32.847656 C 131.632812 32.054688 130.8125 31.570312 129.945312 31.644531 L 118.644531 31.644531 C 118.457031 32.015625 118.828125 32.199219 119.011719 32.386719 C 126.796875 40.898438 130.222656 51.074219 129.851562 62.457031 C 129.480469 73.835938 126.609375 82.074219 122.535156 91.234375 C 119.128906 99.144531 114.707031 106.578125 109.378906 113.347656 C 99.28125 125.929688 86.679688 135 70.652344 138.515625 C 62.222656 140.363281 53.976562 139.996094 46.007812 136.292969 C 38.039062 132.59375 32.390625 126.023438 29.425781 117.511719 C 26.34375 108.976562 25.640625 99.765625 27.386719 90.863281 C 30.410156 74.105469 38.492188 58.671875 50.546875 46.632812 C 56.570312 40.527344 63.796875 35.992188 71.207031 31.738281 C 73.84375 30.1875 76.601562 28.859375 79.453125 27.757812 C 80.472656 27.386719 80.9375 27.574219 81.214844 28.589844 C 81.492188 29.609375 81.121094 29.515625 80.566406 29.886719 C 77.183594 31.839844 73.902344 33.972656 70.746094 36.269531 C 60.183594 44.414062 51.753906 54.128906 47.121094 66.804688 C 45.03125 72.210938 43.933594 77.945312 43.878906 83.738281 C 43.96875 92.992188 46.472656 101.503906 52.957031 108.351562 C 57.316406 113.046875 63.25 115.976562 69.632812 116.585938 C 80.195312 117.789062 89.644531 114.550781 98.261719 108.8125 C 112.34375 99.46875 120.773438 86.328125 123.367188 69.671875 C 124.972656 59.941406 123.515625 49.953125 119.199219 41.082031 C 116.691406 36.160156 113.226562 31.789062 109.007812 28.222656 C 108.636719 27.851562 108.171875 27.664062 107.894531 27.109375 C 108.332031 26.914062 108.8125 26.847656 109.285156 26.925781 L 176.359375 26.925781 C 177.9375 26.925781 177.9375 26.925781 177.566406 28.40625 C 175.761719 35.335938 173.40625 42.113281 170.523438 48.667969 C 164.925781 62.402344 157.972656 75.542969 149.773438 87.902344 L 147.269531 91.417969 C 147.457031 91.601562 147.546875 91.511719 147.734375 91.417969 C 156.351562 87.253906 165.613281 85.679688 175.0625 85.3125 C 182.617188 85.171875 190.167969 85.542969 197.667969 86.421875 C 209.898438 87.53125 221.480469 85.773438 231.949219 78.832031 C 233.734375 77.777344 235.355469 76.464844 236.765625 74.949219 C 237.320312 74.300781 238.15625 73.375 237.414062 72.542969 C 236.671875 71.710938 235.5625 72.265625 234.820312 72.820312 C 232.277344 74.652344 229.582031 76.261719 226.761719 77.632812 C 220.023438 80.441406 212.839844 82.039062 205.542969 82.351562 C 200.582031 82.476562 195.621094 82.132812 190.722656 81.332031 C 185.3125 80.671875 179.863281 80.421875 174.414062 80.59375 C 172.933594 80.683594 172.839844 80.59375 173.582031 79.296875 C 177.378906 71.988281 183.308594 66.710938 190.535156 62.917969 C 194.070312 61.019531 197.941406 59.824219 201.929688 59.402344 C 202.859375 59.339844 203.789062 59.371094 204.710938 59.496094 C 206.207031 59.640625 207.554688 60.460938 208.367188 61.726562 C 209.179688 62.988281 209.367188 64.554688 208.878906 65.972656 C 208.789062 66.25 208.789062 66.433594 208.695312 66.804688 C 209.726562 66.566406 210.703125 66.125 211.566406 65.511719 C 214.585938 63.578125 217.742188 61.878906 221.015625 60.421875 C 222.507812 59.777344 224.113281 59.429688 225.742188 59.402344 C 228.148438 59.402344 229.632812 60.976562 230.929688 62.828125 C 232.226562 64.675781 232.226562 64.769531 234.449219 63.660156 C 237.3125 62.039062 240.285156 60.617188 243.34375 59.402344 C 244.550781 58.898438 245.835938 58.613281 247.144531 58.570312 C 248.574219 58.484375 249.894531 59.351562 250.386719 60.699219 C 251.425781 63.253906 251.394531 66.125 250.292969 68.65625 C 248.5 73.15625 245.523438 77.089844 241.675781 80.035156 C 241.027344 80.59375 240.933594 80.871094 241.398438 81.609375 C 244.269531 85.679688 243.160156 89.84375 238.621094 92.066406 C 235.824219 93.339844 232.796875 94.03125 229.726562 94.101562 C 227.039062 94.378906 224.257812 94.472656 221.480469 94.5625 C 220.832031 94.65625 220.554688 94.75 220.738281 95.488281 C 221.0625 96.664062 221.15625 97.886719 221.015625 99.097656 C 221.058594 101.984375 219.097656 104.515625 216.292969 105.203125 C 209.980469 107.371094 203.027344 106.554688 197.390625 102.984375 L 191.460938 99.46875 C 186.210938 96.386719 180.230469 94.757812 174.136719 94.75 C 161.722656 94.5625 150.699219 98.636719 140.320312 105.113281 C 133.390625 109.433594 127.222656 114.875 122.070312 121.210938 C 116.789062 127.597656 111.417969 133.886719 107.0625 141.011719 C 101.597656 149.894531 97.242188 159.332031 95.109375 169.695312 C 92.410156 182.132812 94.011719 195.113281 99.648438 206.523438 C 99.929688 207.238281 100.644531 207.6875 101.410156 207.632812 L 115.679688 207.632812 L 113.546875 205.042969 C 108.355469 198.367188 105.496094 190.175781 105.394531 181.726562 C 105.023438 169.511719 108.542969 158.128906 113.640625 147.210938 C 117.53125 138.882812 122.164062 131.113281 128.464844 124.359375 C 136.617188 115.566406 146.066406 108.71875 157.554688 104.742188 C 165.152344 102.152344 172.933594 101.039062 180.902344 102.707031 C 193.316406 105.296875 201.28125 112.882812 205.453125 124.636719 C 208.007812 132.097656 208.738281 140.058594 207.582031 147.859375 C 205.265625 166.179688 197.113281 181.816406 184.234375 194.863281 C 177.84375 201.339844 170.152344 206.152344 162.277344 210.59375 C 160.066406 211.820312 157.777344 212.902344 155.421875 213.832031 C 154.773438 214.015625 154.125 214.480469 153.570312 213.371094 C 153.015625 212.257812 153.664062 212.074219 154.3125 211.613281 C 160.46875 208.132812 166.191406 203.941406 171.359375 199.121094 C 180.714844 190.238281 187.199219 179.691406 189.792969 167.011719 C 192.390625 154.335938 190.257812 143.046875 181.917969 133.054688 C 177.566406 127.6875 171.820312 125.003906 165.152344 124.171875 C 154.960938 122.878906 145.695312 125.839844 137.265625 131.296875 C 123.089844 140.644531 114.195312 153.78125 111.324219 170.621094 C 109.472656 181.449219 110.582031 191.996094 115.863281 201.894531 C 118.136719 206.019531 121.152344 209.6875 124.757812 212.722656 L 125.960938 213.738281 Z M 126.148438 214.015625 "/>
<path style=" stroke:none;fill-rule:nonzero;fill:rgb(99.215686%,99.607843%,99.215686%);fill-opacity:1;" d="M 8.671875 119.453125 L 8.671875 33.308594 C 8.527344 21.070312 17.40625 10.582031 29.515625 8.699219 C 31.050781 8.46875 32.601562 8.375 34.148438 8.421875 L 205.914062 8.421875 C 218.699219 8.421875 227.871094 16.839844 230.28125 26.832031 C 230.683594 28.59375 230.902344 30.394531 230.929688 32.199219 L 230.929688 54.5 C 230.929688 55.332031 230.835938 55.703125 229.910156 55.332031 C 229.285156 55.089844 228.632812 54.933594 227.964844 54.871094 C 226.390625 54.589844 226.390625 54.589844 226.390625 53.109375 L 226.390625 33.496094 C 226.441406 28.058594 224.296875 22.828125 220.449219 18.980469 C 216.597656 15.136719 211.359375 12.996094 205.914062 13.046875 L 33.039062 13.046875 C 27.78125 13.019531 22.734375 15.101562 19.023438 18.824219 C 15.316406 22.546875 13.253906 27.597656 13.304688 32.847656 L 13.304688 205.96875 C 13.304688 216.917969 22.164062 225.808594 33.128906 225.859375 L 206.007812 225.859375 C 211.433594 225.988281 216.679688 223.898438 220.527344 220.070312 C 224.375 216.246094 226.492188 211.019531 226.390625 205.597656 L 226.390625 100.394531 C 226.390625 99.28125 226.574219 98.820312 227.78125 98.914062 L 230.1875 98.726562 C 230.835938 98.726562 231.023438 98.914062 230.929688 99.558594 L 230.929688 100.484375 C 230.929688 135.089844 230.835938 169.695312 231.023438 204.300781 C 231.074219 209.207031 229.175781 213.933594 225.742188 217.441406 C 221.292969 222.160156 215.828125 225.582031 210.175781 228.730469 C 207.90625 229.957031 205.347656 230.566406 202.765625 230.488281 L 34.335938 230.488281 C 28.867188 230.488281 23.867188 229.285156 19.417969 226.136719 C 12.378906 221.234375 8.671875 214.480469 8.671875 205.875 Z M 8.671875 119.453125 "/>
</g>
</svg>
