<svg width="20" height="20" viewBox="0 0 20 20" fill="none" xmlns="http://www.w3.org/2000/svg"><path d="M10 20C15.5228 20 20 15.5228 20 10C20 4.47715 15.5228 0 10 0C4.47715 0 0 4.47715 0 10C0 15.5228 4.47715 20 10 20Z" fill="#3499DC"/><path d="M6.5116 4.88371C7.34881 4.74418 8.5116 4.65115 10.1395 4.65115C11.8139 4.65115 12.9767 4.97673 13.7674 5.58139C14.5116 6.18604 15.0232 7.16278 15.0232 8.32557C15.0232 9.48836 14.6511 10.4651 13.9069 11.1628C12.9767 12.0465 11.6279 12.4186 10.0465 12.4186C9.67439 12.4186 9.39532 12.4186 9.11625 12.3721V16.6046H6.46509V4.88371H6.5116ZM9.16276 10.2791C9.39532 10.3256 9.67439 10.3721 10.0465 10.3721C11.4883 10.3721 12.3721 9.6279 12.3721 8.4186C12.3721 7.30232 11.6279 6.65115 10.279 6.65115C9.7209 6.65115 9.34881 6.69766 9.16276 6.74418V10.2791Z" fill="white"/></svg>