<?xml version="1.0" encoding="UTF-8"?>
<svg xmlns="http://www.w3.org/2000/svg" xmlns:xlink="http://www.w3.org/1999/xlink" width="256pt" height="253pt" viewBox="0 0 256 253" version="1.1">
<g id="surface1">
<path style=" stroke:none;fill-rule:nonzero;fill:rgb(0%,0%,0%);fill-opacity:1;" d="M 50.246094 153.945312 C 65.882812 153.945312 81.519531 154.015625 97.15625 153.875 C 99.570312 153.875 100.28125 154.441406 100.28125 156.921875 C 100.1875 187.898438 100.1875 218.824219 100.28125 249.707031 C 100.28125 252.042969 99.714844 252.894531 97.15625 252.894531 C 65.789062 252.800781 34.421875 252.847656 3.054688 253.035156 C 0.425781 253.035156 0.0703125 252.1875 0.0703125 249.847656 C 0.117188 218.921875 0.09375 187.992188 0 157.0625 C 0 154.300781 0.851562 153.875 3.339844 153.875 C 18.976562 154.015625 34.613281 153.945312 50.246094 153.945312 Z M 50.246094 153.945312 "/>
<path style=" stroke:none;fill-rule:nonzero;fill:rgb(36.470588%,69.019608%,18.039216%);fill-opacity:1;" d="M 256 4.070312 C 256 0.8125 255.074219 0.0351562 251.878906 0.0351562 C 210.65625 0.175781 169.433594 0.105469 128.214844 0.105469 L 4.976562 0.105469 C 0.355469 0.105469 0.355469 0.105469 0.355469 4.640625 C 0.261719 40.949219 0.238281 77.285156 0.285156 113.644531 C 0.285156 123.066406 0.355469 122.992188 9.949219 123.066406 C 25.65625 123.136719 41.433594 122.570312 57 125.542969 C 73.703125 128.871094 89.265625 134.75 102.199219 146.296875 C 121.175781 163.226562 128.285156 185.535156 130.773438 209.832031 C 132.121094 222.648438 131.484375 235.542969 131.554688 248.359375 C 131.625 252.894531 131.554688 252.894531 136.246094 252.894531 C 174.976562 252.894531 213.710938 252.824219 252.445312 252.964844 C 255.21875 252.964844 256 252.257812 256 249.421875 C 255.953125 167.6875 255.953125 85.902344 256 4.070312 Z M 202.910156 196.9375 C 202.910156 199.914062 201.984375 200.695312 199.144531 200.550781 C 194.59375 200.339844 190.117188 200.410156 185.640625 200.621094 C 183.007812 200.695312 182.371094 199.488281 182.085938 197.363281 C 179.992188 179.199219 174.671875 161.546875 166.378906 145.234375 C 151.523438 116.40625 128.78125 96.148438 98.859375 83.894531 C 85.523438 78.378906 71.484375 74.734375 57.140625 73.058594 C 54.441406 72.777344 52.949219 71.855469 53.160156 68.667969 C 53.46875 64.425781 53.492188 60.164062 53.234375 55.917969 C 53.089844 53.085938 54.085938 52.449219 56.855469 52.449219 L 199 52.449219 C 202.054688 52.378906 202.980469 53.15625 202.980469 56.34375 C 202.839844 103.183594 202.816406 150.050781 202.910156 196.9375 Z M 202.910156 196.9375 "/>
</g>
</svg>
