<svg width="15" height="9" viewBox="0 0 15 9" fill="none" xmlns="http://www.w3.org/2000/svg">
<g opacity="0.5">
<path d="M8.51831 8.42615C7.9814 8.96305 7.11023 8.96305 6.57359 8.42615L3.56051 5.41307C3.02361 4.87643 3.02361 4.00526 3.56051 3.46861C4.09716 2.93171 4.96833 2.93171 5.50523 3.46861L7.30043 5.26356C7.43595 5.39882 7.65595 5.39882 7.79173 5.26356L12.6526 0.402676C13.1892 -0.134225 14.0604 -0.134225 14.5973 0.402676C14.8551 0.660503 15 1.01032 15 1.3749C15 1.73949 14.8551 2.0893 14.5973 2.34713L8.51831 8.42615Z" fill="white"/>
<path d="M6.48155 8.42615C7.01844 8.96305 7.88959 8.96305 8.42622 8.42615L11.4392 5.41307C11.9761 4.87643 11.9761 4.00526 11.4392 3.46861C10.9026 2.93171 10.0315 2.93171 9.49456 3.46861L7.6994 5.26356C7.56388 5.39882 7.34389 5.39882 7.20812 5.26356L2.34734 0.402676C1.81071 -0.134225 0.939561 -0.134225 0.402671 0.402676C0.144849 0.660503 2.86102e-06 1.01032 2.86102e-06 1.3749C2.86102e-06 1.73949 0.144849 2.0893 0.402671 2.34713L6.48155 8.42615Z" fill="white"/>
</g>
</svg>
