<svg xmlns="http://www.w3.org/2000/svg" viewBox="0 0 149.62 155.91"><defs><style>.cls-1{fill:#00a651;}.cls-1,.cls-2{fill-rule:evenodd;}.cls-2{fill:#231f20;}</style></defs><title>Ресурс 1</title><g id="Слой_2" data-name="Слой 2"><g id="Слой_1-2" data-name="Слой 1"><path class="cls-1" d="M0,0V155.91H149.62V0ZM35.24,133.73a40.56,40.56,0,0,1-8.74-13A96.15,96.15,0,0,1,15,114.1a53.71,53.71,0,0,1,8.64-3.18c-1.07-6.29-.78-11.94.06-19.83,1.55,7.46,2.9,12.8,5.95,18.38,3.73-.77,6.87-1.26,11.21-1.91a43.38,43.38,0,0,0-5.06,10.13,36.24,36.24,0,0,0,13.36,8.61,52,52,0,0,1-14.71-2.47,25.52,25.52,0,0,0,.81,9.9Zm15-48.83C48.11,79.4,45,68.36,45,68.36h0c-6,3.41-19.91,17.11-19.92,17.11,7.63-16,15.36-23.4,15.36-23.4h0c-2.66-2.8-9.65-4.2-14.73-4.45,2.65-1.14,9.45-2.47,14.67-2.71a66.84,66.84,0,0,1,8.39.17c4.67-3.89,11.74-7.15,14.23-7.54a30.69,30.69,0,0,0-4.1,8.4,67,67,0,0,1,24.65,9.32h0c-12-2.2-18.28-1.94-22.73-1.52s-5.36,1-5.36,1c-3.22,7.37-5.15,20.15-5.15,20.16Zm28.07,41.2c.37,1.91.65,3,1,4.47a29.87,29.87,0,0,1-6.25.4,59.48,59.48,0,0,1-15.42,6.09,57.83,57.83,0,0,0,8.09-6.56,29.93,29.93,0,0,1-8.29-3,43.81,43.81,0,0,0,12.76-1.84c2.69-3.15,4.74-5.86,7.18-9.28.09,2.39.23,4.19.44,6.32a75.05,75.05,0,0,0,11.47-7.07,104.17,104.17,0,0,1-11,10.48Zm48-91.17c1.53,4.3-2.12,28-5.14,34.29-.13-9.93-1-22.46-4.46-27.88-9.27,5.71-12.11,6.16-22.11,12.47a108.93,108.93,0,0,0,11.48-15.05c-9.26.51-22.71,1.68-32.35,3.92,8.39-4.67,25-9.92,33.72-11.15-2-2.93-18.45-12.28-22.54-14.06,13,1.06,28.89,6.12,36.58,11.11,3.09-1,6.2-1.07,11.81-1.59-1.43,2.59-1.45,4.1-7,7.94Z"/><path class="cls-2" d="M83.54,65.26h0Z"/></g></g></svg>