<svg width="30" height="26" xmlns="http://www.w3.org/2000/svg" xml:space="preserve" version="1.1">

 <g>
  <title>Layer 1</title>
  <g id="фон">
   <polygon id="svg_1" fill="#39A589" points="24.24414825439453,0.1666707992553711 15.144147872924805,0.1666707992553711 6.044146537780762,0.1666707992553711 0.34414681792259216,11.866670936346054 15.144147872924805,25.966669410467148 29.94414710998535,11.866670936346054 " class="st63"/>
   <path id="svg_2" fill="#FBFDFF" d="m24.84415,11.56667c0,-1.2 -3.4,-2.3 -7.9,-2.5l0,-1.8l5.3,0l0,-3.7l-14.3,0l0,3.7l5.3,0l0,1.8c-4.5,0.2 -7.9,1.3 -7.9,2.5s3.4,2.3 7.9,2.5l0,6.7l3.7,0l0,-6.7c4.5,-0.2 7.9,-1.3 7.9,-2.5zm-9.7,1.4c-4.3,0 -7.8,-0.7 -7.8,-1.6c0,-0.8 2.5,-1.4 6,-1.6l0,0l0,0.5l0,2.3c0.6,0 1.2,0.1 1.9,0.1c0.6,0 1.3,0 1.8,-0.1l0,-2.3l0,-0.5l0,0c3.4,0.2 6,0.8 6,1.6c-0.1,0.8 -3.6,1.6 -7.9,1.6z" class="st60"/>
  </g>
  <g id="примеры"/>
  <g id="лого"/>
 </g>
</svg>