<svg width="18" height="22" viewBox="0 0 18 22" fill="none" xmlns="http://www.w3.org/2000/svg">
<path d="M15.6051 15.726L12.1023 13.9748C11.772 13.8094 11.5666 13.4772 11.5666 13.1076V11.8679C11.6506 11.7652 11.739 11.6483 11.8303 11.5192C12.2846 10.8775 12.6487 10.1633 12.9134 9.3929C13.4308 9.15567 13.7666 8.64417 13.7666 8.06667V6.6C13.7666 6.2469 13.6346 5.9048 13.4 5.6375V3.6872C13.4205 3.48553 13.5012 2.28507 12.6329 1.2947C11.8798 0.4356 10.6577 0 8.99998 0C7.34228 0 6.12018 0.4356 5.36705 1.29433C4.49878 2.2847 4.57945 3.48553 4.59998 3.6872V5.6375C4.36532 5.9048 4.23332 6.2469 4.23332 6.6V8.06667C4.23332 8.5129 4.43608 8.92907 4.78222 9.20663C5.11808 10.5365 5.82098 11.5386 6.06665 11.8602V13.0735C6.06665 13.4284 5.87305 13.754 5.56175 13.9242L2.29072 15.7084C1.22702 16.2888 0.56665 17.4013 0.56665 18.6127V19.8C0.56665 21.5402 6.08315 22 8.99998 22C11.9168 22 17.4333 21.5402 17.4333 19.8V18.6842C17.4333 17.4236 16.7326 16.2899 15.6051 15.726Z" fill="#162F66"/>
</svg>
