<?xml version="1.0" encoding="utf-8"?>
<!-- Generator: Adobe Illustrator 25.0.0, SVG Export Plug-In . SVG Version: 6.00 Build 0)  -->
<svg version="1.1" xmlns="http://www.w3.org/2000/svg" xmlns:xlink="http://www.w3.org/1999/xlink" x="0px" y="0px"
	 viewBox="0 0 42 42" style="enable-background:new 0 0 42 42;" xml:space="preserve">
<style type="text/css">
	.st0{opacity:0.3;fill:#FFFFFF;enable-background:new    ;}
	.st1{opacity:0.3;fill:#EBF6F0;}
	.st2{opacity:0.3;fill:#F7E6E9;}
	.st3{opacity:0.3;fill:#4EA3E4;}
	.st4{opacity:0.3;fill:#D89626;}
	.st5{opacity:0.3;fill:#007AE7;}
	.st6{opacity:0.3;fill:#1F79B1;}
	.st7{opacity:0.3;fill:#00ABE8;}
	.st8{opacity:0.3;fill:#021420;}
	.st9{opacity:0.3;fill:#2E9AD0;}
	.st10{opacity:0.3;fill:#9E1F65;}
	.st11{opacity:0.3;fill:#18B9BE;}
	.st12{opacity:0.3;fill:#5F2652;}
	.st13{opacity:0.3;fill:#001A3E;}
	.st14{opacity:0.3;fill:#009A61;}
	.st15{opacity:0.3;fill:#F01010;}
	.st16{opacity:0.3;fill:#009FDF;}
	.st17{opacity:0.3;}
	.st18{opacity:0.3;fill:#F0722A;}
	.st19{opacity:0.3;fill:#0FAFAD;}
	.st20{opacity:0.3;fill:#76B729;}
	.st21{opacity:0.3;fill:#204E76;}
	.st22{opacity:0.3;fill:#5F5742;}
	.st23{opacity:0.3;fill:#ECB244;}
	.st24{opacity:0.3;fill:#015FAE;}
	.st25{opacity:0.3;fill:#F7A600;}
	.st26{opacity:0.3;fill:#2775CA;}
	.st27{opacity:0.3;fill:#5DC8BB;}
	.st28{opacity:0.3;fill:#C53027;}
	.st29{opacity:0.3;fill:#FCE527;}
	.st30{opacity:0.3;fill:#2C7DF7;}
	.st31{opacity:0.3;fill:#444343;enable-background:new    ;}
	.st32{opacity:0.3;fill:#509B47;}
	.st33{fill:url(#SVGID_1_);}
	.st34{opacity:0.3;fill:#FF9E16;}
	.st35{fill:#FFFFFF;}
	.st36{opacity:0.3;fill:#3BB054;}
	.st37{opacity:0.3;fill:#179BD7;}
	.st38{opacity:0.3;fill:#00C452;}
	.st39{opacity:0.3;fill:#F1A114;}
	.st40{opacity:0.3;fill:#FF6600;}
	.st41{opacity:0.3;fill:#FAB31E;}
	.st42{opacity:0.3;fill:#345D9D;}
	.st43{opacity:0.3;fill:#969B9E;}
	.st44{opacity:0.3;fill:#01C853;}
	.st45{opacity:0.3;fill:#FFB600;}
	.st46{opacity:0.3;fill:#008DE4;}
	.st47{opacity:0.3;fill:#F19620;}
	.st48{opacity:0.3;fill:#F90000;}
	.st49{fill:#F10000;}
	.st50{fill:#F19620;}
	.st51{fill:none;stroke:#F10000;stroke-width:0.25;stroke-miterlimit:10;}
	.st52{fill:#008DE4;}
	.st53{fill:#FFB600;}
	.st54{fill:#01C853;}
	.st55{fill:#009F42;}
	.st56{fill:#007832;}
	.st57{fill:#454749;}
	.st58{fill:#989A9C;}
	.st59{fill:#969B9E;}
	.st60{fill:#0B0809;}
	.st61{fill:#454246;}
	.st62{fill:#434343;}
	.st63{fill:#345D9D;}
	.st64{fill-rule:evenodd;clip-rule:evenodd;fill:#FFFFFF;}
	.st65{fill-rule:evenodd;clip-rule:evenodd;fill:#FAB31E;}
	.st66{fill-rule:evenodd;clip-rule:evenodd;fill:#E40520;}
	.st67{fill-rule:evenodd;clip-rule:evenodd;fill:#06326E;}
	.st68{fill-rule:evenodd;clip-rule:evenodd;fill:#4C4C4C;}
	.st69{fill:#FF6600;}
	.st70{fill:#F4F5F5;}
	.st71{fill:#F1A114;}
	.st72{fill:#62ADE4;}
	.st73{fill:#14C0AF;}
	.st74{fill:#E8EF00;}
	.st75{fill:#009066;}
	.st76{fill:#0096DD;}
	.st77{fill:#00C452;}
	.st78{fill:#A7DB38;}
	.st79{fill:#006036;}
	.st80{fill:#253B80;}
	.st81{fill:#179BD7;}
	.st82{fill:#222D65;}
	.st83{fill:#3BB054;}
	.st84{fill:#0043FA;}
	.st85{fill:#FF9E16;}
	.st86{fill:url(#SVGID_2_);}
	.st87{fill:url(#SVGID_3_);}
	.st88{fill:#2C7DF7;}
	.st89{fill:#FCE527;}
	.st90{fill:#222220;}
	.st91{fill:#C53027;}
	.st92{fill:#5DC8BB;}
	.st93{fill:#5F6161;}
	.st94{fill:#2675CA;}
	.st95{fill:#005098;}
	.st96{fill:#F7A600;}
	.st97{fill:#015FAC;}
	.st98{fill:#ECB244;}
	.st99{fill:#76B729;}
	.st100{fill:#FEFCFD;}
	.st101{fill:#E70027;}
	.st102{fill:#FFFEFF;}
	.st103{fill:url(#SVGID_4_);}
	.st104{fill:#509B47;}
	.st105{fill:url(#SVGID_5_);}
	
		.st106{fill-rule:evenodd;clip-rule:evenodd;fill:#5F5742;stroke:#E2DFD7;stroke-width:0.3529;stroke-linejoin:round;stroke-miterlimit:2.6131;}
	
		.st107{fill-rule:evenodd;clip-rule:evenodd;fill:#FFFFFF;stroke:#5F5742;stroke-width:9.513900e-02;stroke-linejoin:round;stroke-miterlimit:2.6131;}
	.st108{fill-rule:evenodd;clip-rule:evenodd;fill:#5F5742;}
	.st109{fill-rule:evenodd;clip-rule:evenodd;fill:#204E76;}
	.st110{fill:#F90000;}
	.st111{fill:#009FDF;}
	.st112{fill:#0A2973;}
	.st113{fill:#F01010;}
	.st114{fill:#00384F;}
	.st115{fill:#009A61;}
	.st116{fill:#001A3E;}
	.st117{fill:#18B9BE;}
	.st118{fill:#9E1F65;}
	.st119{fill:#632D8F;}
	.st120{fill:#FF5000;}
	.st121{fill:#303147;}
	.st122{fill:#1D1E35;}
	.st123{fill:#B7BBCC;}
	.st124{fill:#6B6D88;}
	.st125{fill:#B7BBCA;}
	.st126{fill:#00ABE8;}
	.st127{fill:#1F79B1;}
	.st128{fill:#007AE7;}
	.st129{fill:#062662;}
	.st130{fill:#09255B;}
	.st131{fill:#D89626;}
	.st132{fill:#4EA3E4;}
	.st133{fill:#FAF9FB;}
	.st134{fill:url(#SVGID_6_);}
	.st135{fill:url(#SVGID_7_);}
	.st136{fill:#F7E6E9;}
	.st137{fill:#E9334C;}
	.st138{fill:#F07885;}
	.st139{fill:#EBF6F0;}
	.st140{fill:url(#SVGID_8_);}
	.st141{fill:none;stroke:#81E1A5;stroke-linecap:round;stroke-linejoin:round;stroke-miterlimit:10;}
	.st142{fill:url(#SVGID_9_);}
</style>
<g id="фон">
	<path class="st0" d="M34.6,42H7.4C3.3,42,0,38.7,0,34.6V7.4C0,3.3,3.3,0,7.4,0h27.2C38.7,0,42,3.3,42,7.4v27.2
		C42,38.7,38.7,42,34.6,42z"/>
</g>
<g id="примеры">
</g>
<g id="лого">
	<g>
		<polygon class="st35" points="13.2,17.4 12.6,19 4.7,19 5.2,17.4 		"/>
		<polygon class="st35" points="12.3,19.8 11.8,21.3 3.8,21.3 4.4,19.8 		"/>
		<polygon class="st35" points="14,15.1 13.4,16.6 5.5,16.6 6,15.1 		"/>
		<path class="st35" d="M19.9,21.9H20c1,0,1.8-0.8,1.8-1.8v-0.2c0-1.4-1.1-2.5-2.5-2.5h-3.8v9.5h3.9c0.7,0,1.4-0.3,1.9-0.8
			c0.5-0.5,0.8-1.1,0.8-1.9C22.2,22.9,21.2,21.9,19.9,21.9z M17.5,19h1.3c0.6,0,1.1,0.5,1.1,1.1v0c0,0.6-0.5,1.1-1.1,1.1h-1.3V19z
			 M19,25.3h-1.5v-2.5H19c0.7,0,1.2,0.6,1.2,1.3C20.3,24.8,19.7,25.3,19,25.3z"/>
		<polygon class="st35" points="22.3,17.4 22.3,19 25.1,19 25.1,26.9 27,26.9 27,19 29.4,19 29.9,17.4 		"/>
		<path class="st35" d="M34.6,21.2h-2.2c0-0.1,0-2.2,0-2.2h3.7l0.6-1.6h-6.1v3.8v5.7h3.8c1.6,0,2.9-1.3,2.9-2.9v-0.2
			C37.2,22.4,36,21.2,34.6,21.2z M35.2,24.2c0,0.7-0.5,1.2-1.2,1.2h-1.6v-2.7H34c0.7,0,1.2,0.5,1.2,1.2V24.2z"/>
	</g>
</g>
</svg>
